<?xml version="1.0" encoding="UTF-8" standalone="no"?>
<!-- Created with Inkscape (http://www.inkscape.org/) -->

<svg
   width="50"
   height="50"
   viewBox="0 0 13.229166 13.229167"
   version="1.1"
   id="svg1109"
   inkscape:version="1.1.2 (1:1.1+202202050950+0a00cf5339)"
   sodipodi:docname="address.svg"
   xmlns:inkscape="http://www.inkscape.org/namespaces/inkscape"
   xmlns:sodipodi="http://sodipodi.sourceforge.net/DTD/sodipodi-0.dtd"
   xmlns="http://www.w3.org/2000/svg"
   xmlns:svg="http://www.w3.org/2000/svg">
  <sodipodi:namedview
     id="namedview1111"
     pagecolor="#ffffff"
     bordercolor="#666666"
     borderopacity="1.0"
     inkscape:pageshadow="2"
     inkscape:pageopacity="0.0"
     inkscape:pagecheckerboard="0"
     inkscape:document-units="mm"
     showgrid="false"
     units="px"
     inkscape:zoom="1.4236377"
     inkscape:cx="35.472509"
     inkscape:cy="56.896499"
     inkscape:window-width="1366"
     inkscape:window-height="716"
     inkscape:window-x="0"
     inkscape:window-y="0"
     inkscape:window-maximized="1"
     inkscape:current-layer="layer1" />
  <defs
     id="defs1106" />
  <g
     inkscape:label="Layer 1"
     inkscape:groupmode="layer"
     id="layer1">
    <path
       id="path1774"
       style="fill:#3bcdca;stroke-width:0.264584"
       d="M 6.6145834,0 A 6.6144023,6.6146217 0 0 0 0,6.6142497 6.6144023,6.6146217 0 0 0 6.6145834,13.229167 6.6144023,6.6146217 0 0 0 13.229166,6.6142497 6.6144023,6.6146217 0 0 0 6.6145834,0 Z m 0.00599,2.1665311 h 0.012658 a 2.7966432,2.7987566 0 0 1 2.7937123,2.7924895 c 0,0.833484 -0.4568161,2.1149661 -1.3582212,3.8030939 C 7.4005973,10.01336 6.7233284,11.036037 6.7164968,11.045968 a 0.09788252,0.09795649 0 0 1 -0.080601,0.04266 h -0.00333 A 0.09754146,0.09761517 0 0 1 6.5519683,11.049303 21.985367,22.001981 0 0 1 5.1910824,8.9214356 C 4.2842201,7.3029354 3.8242018,5.9692872 3.8242018,4.9596862 A 2.7966432,2.7987566 0 0 1 6.6205787,2.1665311 Z m 0.00666,1.5659007 a 1.2960055,1.2969849 0 1 0 1.2962717,1.2965854 h 6.661e-4 A 1.2980518,1.2990327 0 0 0 6.6272416,3.7324318 Z" />
  </g>
</svg>
