<?xml version="1.0" encoding="UTF-8" standalone="no"?>
<!-- Created with Inkscape (http://www.inkscape.org/) -->

<svg
   width="50"
   height="56"
   viewBox="0 0 13.229166 14.816667"
   version="1.1"
   id="svg3104"
   inkscape:version="1.1.2 (1:1.1+202202050950+0a00cf5339)"
   sodipodi:docname="filters.svg"
   xmlns:inkscape="http://www.inkscape.org/namespaces/inkscape"
   xmlns:sodipodi="http://sodipodi.sourceforge.net/DTD/sodipodi-0.dtd"
   xmlns="http://www.w3.org/2000/svg"
   xmlns:svg="http://www.w3.org/2000/svg">
  <sodipodi:namedview
     id="namedview3106"
     pagecolor="#ffffff"
     bordercolor="#666666"
     borderopacity="1.0"
     inkscape:pageshadow="2"
     inkscape:pageopacity="0.0"
     inkscape:pagecheckerboard="0"
     inkscape:document-units="mm"
     showgrid="false"
     units="px"
     inkscape:zoom="2.8472754"
     inkscape:cx="69.540165"
     inkscape:cy="27.043398"
     inkscape:window-width="1366"
     inkscape:window-height="716"
     inkscape:window-x="0"
     inkscape:window-y="0"
     inkscape:window-maximized="1"
     inkscape:current-layer="layer1" />
  <defs
     id="defs3101" />
  <g
     inkscape:label="Layer 1"
     inkscape:groupmode="layer"
     id="layer1">
    <g
       id="g3086"
       transform="matrix(0.66328413,0,0,0.66292828,-1025.7872,-310.46482)"
       style="stroke-width:0.399006">
      <path
         id="Vector_9"
         d="m 1558.92,471.042 a 2.42,2.42 0 0 0 -4.84,0 m 4.84,0 h -4.84 m 4.84,0 a 2.42,2.42 0 0 1 -4.84,0 m 4.84,0 h 7.25 m -12.09,0 h -7.25 m 14.5,8.458 a 2.42,2.42 0 1 0 2.42,-2.417 2.423,2.423 0 0 0 -2.42,2.417 z m 0,0 h -14.5 m 4.84,8.458 a 2.42,2.42 0 1 0 -2.42,2.417 2.422,2.422 0 0 0 2.42,-2.417 z m 0,0 h 14.5"
         fill="none"
         stroke="#000000"
         stroke-linecap="round"
         stroke-width="0.598508" />
      <circle
         id="Ellipse_13"
         data-name="Ellipse 13"
         cx="1563.75"
         cy="479.5"
         r="2.4170001"
         style="stroke-width:0.399006" />
      <circle
         id="Ellipse_14"
         data-name="Ellipse 14"
         cx="1556.5"
         cy="471.04199"
         r="2.4170001"
         style="stroke-width:0.399006" />
      <circle
         id="Ellipse_15"
         data-name="Ellipse 15"
         cx="1549.25"
         cy="487.95801"
         r="2.4170001"
         style="stroke-width:0.399006" />
    </g>
  </g>
</svg>
