<?xml version="1.0" encoding="UTF-8" standalone="no"?>
<!-- Created with Inkscape (http://www.inkscape.org/) -->

<svg
   width="80mm"
   height="120mm"
   viewBox="0 0 80 120"
   version="1.1"
   id="svg950"
   inkscape:version="1.1.2 (1:1.1+202202050950+0a00cf5339)"
   sodipodi:docname="large-pic.png.svg"
   xmlns:inkscape="http://www.inkscape.org/namespaces/inkscape"
   xmlns:sodipodi="http://sodipodi.sourceforge.net/DTD/sodipodi-0.dtd"
   xmlns="http://www.w3.org/2000/svg"
   xmlns:svg="http://www.w3.org/2000/svg">
  <sodipodi:namedview
     id="namedview952"
     pagecolor="#ffffff"
     bordercolor="#666666"
     borderopacity="1.0"
     inkscape:pageshadow="2"
     inkscape:pageopacity="0.0"
     inkscape:pagecheckerboard="0"
     inkscape:document-units="mm"
     showgrid="false"
     width="80mm"
     inkscape:zoom="0.50333193"
     inkscape:cx="338.74267"
     inkscape:cy="562.25322"
     inkscape:window-width="1366"
     inkscape:window-height="716"
     inkscape:window-x="0"
     inkscape:window-y="0"
     inkscape:window-maximized="1"
     inkscape:current-layer="layer1" />
  <defs
     id="defs947" />
  <g
     inkscape:label="Layer 1"
     inkscape:groupmode="layer"
     id="layer1">
    <path
       id="Vector_7-1"
       d="M 72.333268,0 H 7.6667287 A 7.6725023,7.6725813 0 0 0 0,7.6613093 V 112.33869 A 7.6725023,7.6725813 0 0 0 7.6667287,120 H 72.333268 a 7.6725023,7.6725813 0 0 0 7.666729,-7.66131 V 7.6613093 A 7.6725023,7.6725813 0 0 0 72.333268,0 Z m 0,7.6613093 0.0031,75.1074147 -12.954702,-12.15733 A 4.7822514,4.7823007 0 0 0 56.114935,69.294135 4.7338514,4.7339002 0 0 0 52.362839,71.17158 L 37.11493,90.905238 a 2.6864758,2.6865035 0 0 1 -2.119983,1.021359 2.6237758,2.6238028 0 0 1 -1.554576,-0.498581 L 23.531024,84.19544 a 6.4031019,6.4031679 0 0 0 -7.599908,0.275 L 7.6670924,91.475869 V 7.6613093 Z"
       fill="#385283"
       style="stroke-width:0.264583" />
  </g>
</svg>
