<?xml version="1.0" encoding="UTF-8" standalone="no"?>
<!-- Created with Inkscape (http://www.inkscape.org/) -->

<svg
   width="50"
   height="50"
   viewBox="0 0 13.229166 13.229167"
   version="1.1"
   id="svg1109"
   inkscape:version="1.1.2 (1:1.1+202202050950+0a00cf5339)"
   sodipodi:docname="website.svg"
   xmlns:inkscape="http://www.inkscape.org/namespaces/inkscape"
   xmlns:sodipodi="http://sodipodi.sourceforge.net/DTD/sodipodi-0.dtd"
   xmlns="http://www.w3.org/2000/svg"
   xmlns:svg="http://www.w3.org/2000/svg">
  <sodipodi:namedview
     id="namedview1111"
     pagecolor="#ffffff"
     bordercolor="#666666"
     borderopacity="1.0"
     inkscape:pageshadow="2"
     inkscape:pageopacity="0.0"
     inkscape:pagecheckerboard="0"
     inkscape:document-units="mm"
     showgrid="false"
     units="px"
     inkscape:zoom="1.4236377"
     inkscape:cx="145.05095"
     inkscape:cy="105.36389"
     inkscape:window-width="1366"
     inkscape:window-height="716"
     inkscape:window-x="0"
     inkscape:window-y="0"
     inkscape:window-maximized="1"
     inkscape:current-layer="layer1" />
  <defs
     id="defs1106" />
  <g
     inkscape:label="Layer 1"
     inkscape:groupmode="layer"
     id="layer1">
    <path
       id="Vector"
       d="M 6.6145822,0 A 6.6145834,6.6145834 0 1 0 13.229167,6.6145833 6.6340241,6.6340241 0 0 0 6.6145822,0 Z m 4.2994458,4.3823232 c 0.330832,0 0.579808,0.2479543 0.909616,0.2479543 -0.247953,0.3308304 -1.322985,0.3308304 -1.653475,-0.082538 A 1.974416,1.974416 0 0 1 10.914028,4.3823232 Z M 0.82673664,6.6145833 a 5.0859373,5.0859373 0 0 1 0.0825384,-1.075031 c 0.0825384,0 0.16541456,0.082538 0.24795296,0.082538 A 0.28853963,0.28853963 0 0 1 1.239766,5.7875062 0.44338241,0.44338241 0 0 0 1.6531349,6.200875 c 0.6613218,0.082538 0.9096151,0.6613218 1.4883998,0.8267377 0.1654158,0.082538 0.082538,0.247953 0,0.4133688 -0.4962463,0.6613218 -0.082538,1.1575694 0.3308317,1.5709382 0.4133688,0.3308304 0.4133688,0.6613218 0.4962475,1.1575683 A 4.7131549,4.7131549 0 0 0 4.2994461,11.988379 5.9297281,5.9297281 0 0 1 0.82673793,6.6145846 Z M 6.6145822,12.402429 a 5.875499,5.875499 0 0 1 -1.7363527,-0.247953 0.527284,0.527284 0 0 1 0,-0.496246 A 13.158908,13.158908 0 0 1 5.9532604,9.8393384 0.83696956,0.83696956 0 0 0 6.2840921,9.2595302 1.5347853,1.5347853 0 0 1 6.449508,8.679722 C 6.697461,8.2663532 6.6149238,8.0184002 6.2840921,7.9355228 5.6227703,7.7701069 5.2919386,7.1913222 4.7956923,6.9433692 4.2994448,6.6954163 3.8035388,6.5300004 3.39017,6.7779534 3.2247541,6.8604918 2.9768011,6.9433692 2.9768011,6.695415 c 0,-0.3308317 -0.4133688,-0.5798082 -0.3308317,-0.9096164 A 0.30388748,0.30388748 0 0 0 2.3980164,5.868337 C 2.315478,5.9508754 2.2326006,6.0337528 2.0671847,5.9508754 1.9017689,5.7854595 1.9846463,5.6200437 1.9846463,5.4546278 A 0.64563299,0.64563299 0 0 1 2.315478,5.1237974 C 2.6463085,5.041259 2.9767998,5.041259 3.1422157,5.4546278 A 2.8240049,2.8240049 0 0 1 4.3823222,3.966228 5.8301375,5.8301375 0 0 1 5.1265215,3.3864198 c 0.082538,0 0.1654158,0.1654159 0.3308317,0.247953 0.1654158,0 0.2479529,0 0.2479529,-0.1654158 A 0.88676482,0.88676482 0 0 0 5.2090599,2.4768034 0.08083202,0.08083202 0 0 1 5.2915983,2.394265 c 0.247953,-0.082538 0.5798069,-0.2479529 0.4962463,-0.4959059 0,-0.3308317 -0.3308305,-0.4962476 -0.6613219,-0.4962476 A 1.0487699,1.0487699 0 0 0 4.6302765,1.4846499 2.7390801,2.7390801 0 0 1 3.39017,1.8154816 5.5122665,5.5122665 0 0 1 6.6149238,0.82332811 H 7.2762456 A 4.9914627,4.9914627 0 0 0 5.9532604,1.2366969 c 0.4962476,0.082538 0.5798082,0.3308318 0.4133689,0.7442006 a 0.3018411,0.3018411 0 0 0 0.1654158,0.4133688 c 0.1654159,0.082538 0.3308317,0.082538 0.4133688,-0.082538 A 1.3424255,1.3424255 0 0 1 7.6896145,1.8983591 1.39836,1.39836 0 0 0 8.5163522,1.3185509 c 0,-0.082538 0.082538,-0.082538 0.1654158,-0.1654159 a 6.7029188,6.7029188 0 0 1 1.488401,0.8267377 c -0.08254,0 -0.08254,0.082538 -0.165416,0.082538 -0.1654156,0.1654159 -0.4133686,0.247953 -0.1654156,0.5798069 0.082538,0.1654159 0,0.247953 -0.082538,0.3308317 -0.1654159,0.082538 -0.247953,0 -0.3308317,-0.082538 -0.082874,-0.082538 -0.082539,-0.247953 -0.3308317,-0.247953 -0.082539,0.1654159 -0.3308318,0.247953 -0.3308318,0.4962476 0.4133689,0 0.3308318,0.3308304 0.4133689,0.5798069 C 8.6814251,3.8011512 8.5163509,4.0494445 8.7643038,4.4628133 8.8468423,4.6282292 8.6817654,4.7107663 8.598888,4.793645 8.2680563,5.289551 7.9375662,5.6203827 7.9375662,6.1991674 a 0.99863361,0.99863361 0 0 0 1.0750322,1.0750323 c 0.7442006,-0.082538 0.7442006,-0.082538 0.9921536,0.5798069 0,0.082538 0.08254,0.1654158 0.08254,0.2479529 a 0.54570143,0.54570143 0 0 1 0.08254,0.4962476 c -0.2479532,0.6613218 0.08254,1.1575694 0.330831,1.6538169 a 1.1394928,1.1394928 0 0 0 0.247953,0.33049 5.5023757,5.5023757 0 0 1 -4.1340295,1.818891 z"
       fill="#3bcdca"
       style="stroke-width:0.264583" />
  </g>
</svg>
